HIERARCHY
ROOT Hips
{
  OFFSET 279.157 85.6768 304.565
  CHANNELS 6 Xposition Yposition Zposition Zrotation Xrotation Yrotation
  JOINT LeftUpLeg
  {
    OFFSET 8.64259 1.95398 -2.38835
    CHANNELS 3 Zrotation Xrotation Yrotation
    JOINT LeftLeg
    {
      OFFSET 43.7702 0 0
      CHANNELS 3 Zrotation Xrotation Yrotation
      JOINT LeftFoot
      {
        OFFSET 40.6238 0 0
        CHANNELS 3 Zrotation Xrotation Yrotation
        JOINT LeftToeBase
        {
          OFFSET 12.7242 0 0
          CHANNELS 3 Zrotation Xrotation Yrotation
          End Site
          {
            OFFSET 0 0 0
          }
        }
      }
    }
  }
  JOINT RightUpLeg
  {
    OFFSET -8.2249 1.95398 -2.59336
    CHANNELS 3 Zrotation Xrotation Yrotation
    JOINT RightLeg
    {
      OFFSET 43.5653 0 0
      CHANNELS 3 Zrotation Xrotation Yrotation
      JOINT RightFoot
      {
        OFFSET 40.6238 0 0
        CHANNELS 3 Zrotation Xrotation Yrotation
        JOINT RightToeBase
        {
          OFFSET 12.7242 0 0
          CHANNELS 3 Zrotation Xrotation Yrotation
          End Site
          {
            OFFSET 0 0 0
          }
        }
      }
    }
  }
  JOINT Spine
  {
    OFFSET 0.165834 0.87714 6.61349
    CHANNELS 3 Zrotation Xrotation Yrotation
    JOINT Spine1
    {
      OFFSET 7.38963 1.71661e-005 0
      CHANNELS 3 Zrotation Xrotation Yrotation
      JOINT Spine2
      {
        OFFSET 11.9445 1.14441e-005 0
        CHANNELS 3 Zrotation Xrotation Yrotation
        JOINT Spine3
        {
          OFFSET 14.7254 4.19617e-005 0
          CHANNELS 3 Zrotation Xrotation Yrotation
          JOINT Spine4
          {
            OFFSET 10.9679 0 0
            CHANNELS 3 Zrotation Xrotation Yrotation
            JOINT RightShoulder
            {
              OFFSET 2.46616 -1.6653 3.69651
              CHANNELS 3 Zrotation Xrotation Yrotation
              JOINT RightArm
              {
                OFFSET 13.0012 0 0
                CHANNELS 3 Zrotation Xrotation Yrotation
                JOINT RightForeArm
                {
                  OFFSET 28.7848 1.52588e-005 0
                  CHANNELS 3 Zrotation Xrotation Yrotation
                  JOINT RightHand
                  {
                    OFFSET 26.5688 1.52588e-005 0
                    CHANNELS 3 Zrotation Xrotation Yrotation
                    End Site
                    {
                      OFFSET 0 0 0
                    }
                  }
                }
              }
            }
            JOINT LeftShoulder
            {
              OFFSET 2.38034 -1.29275 -3.7523
              CHANNELS 3 Zrotation Xrotation Yrotation
              JOINT LeftArm
              {
                OFFSET 16.3182 6.10351e-005 0
                CHANNELS 3 Zrotation Xrotation Yrotation
                JOINT LeftForeArm
                {
                  OFFSET 27.0901 0 0
                  CHANNELS 3 Zrotation Xrotation Yrotation
                  JOINT LeftHand
                  {
                    OFFSET 24.5451 1.52588e-005 0
                    CHANNELS 3 Zrotation Xrotation Yrotation
                    End Site
                    {
                      OFFSET 0 0 0
                    }
                  }
                }
              }
            }
            JOINT Neck
            {
              OFFSET 5.0226 -0.0266342 0
              CHANNELS 3 Zrotation Xrotation Yrotation
              JOINT Head
              {
                OFFSET 6.69364 2.86102e-005 0
                CHANNELS 3 Zrotation Xrotation Yrotation
                End Site
                {
                  OFFSET 0 0 0
                }
              }
            }
          }
        }
      }
    }
  }
}
MOTION
Frames:	7
Frame Time:	0.0416667
-11.1658 94.6802 -13.6587 -105.063 44.4238 -81.6929 -173.329 9.77643 87.7941 -48.1752 10.3724 0.676034 81.728 15.7592 0.137572 27.2219 -2.56544 6.88594 176.857 35.0864 87.6012 -84.1562 -5.84622 -3.49544 67.9538 -5.26402 -3.30523 15.8504 2.67216 7.26375 0.405268 8.47214 -89.8308 9.93088 0.884628 0.262554 -1.73975 0.895303 0.223367 -24.277 0.764805 0.516298 -4.26436 0.764798 0.516303 89.1772 -32.6778 -107.332 32.5266 10.072 4.79855 -37.0236 -1.67347 -103.732 -29.6579 1.7313 -21.3524 -88.6221 -49.2904 80.6549 -10.3545 27.1524 5.19842 38.9802 -13.771 -92.0477 -2.0024 -0.164223 -26.2658 2.99144 33.2268 7.53745 -9.22686 30.9582 13.5738 
-5.46049 95.227 -8.10756 -104.934 44.4872 -82.7057 -174.442 14.7344 86.1686 -45.7871 11.2315 0.214082 74.7167 11.0903 2.13406 24.7047 -3.04089 3.08211 174.617 28.0462 86.2045 -91.0201 -3.27921 -3.33223 65.2938 -4.43142 -3.6747 13.2465 3.22693 7.94595 1.07537 8.4097 -89.8602 10.0549 2.2067 0.094149 -1.61421 2.2087 -0.00311 -24.1631 2.07633 0.753291 -4.15044 2.07633 0.753285 90.3912 -28.0347 -106.735 31.0433 13.7794 -1.27 -35.2485 -1.06868 -105.795 -30.5925 1.93671 -21.3912 -88.9133 -50.678 80.4868 -17.9726 24.4468 23.7322 36.4683 -15.8167 -94.9217 -2.65462 -0.0307626 -28.2827 -1.45137 32.6621 11.6372 -6.15993 30.6342 12.0532 
0.116757 97.1025 -3.03389 -108.647 44.2965 -79.6059 -175.274 13.4786 87.1674 -37.2987 13.1037 0.120535 66.4777 4.82484 1.82325 20.3869 -5.52282 2.98514 173.614 14.1021 85.8609 -88.4055 -9.1366 -3.62109 59.4215 -0.979309 -3.84643 11.716 3.56765 8.25494 1.83785 8.55758 -89.9531 9.76534 3.68483 -0.19888 -1.90044 3.6725 -0.361084 -24.4758 3.57402 0.919211 -4.46309 3.57401 0.919197 90.1187 -24.587 -108.773 28.5678 18.1878 -3.81069 -33.9587 -1.80089 -107.25 -29.5 1.75904 -21.1267 -86.4422 -48.6115 83.8489 -22.8015 24.1244 36.9651 34.0495 -19.1756 -98.3023 -1.22068 -0.338054 -28.9108 -8.16221 30.6567 12.1817 -4.33502 29.5405 13.1222 
6.08195 99.4771 2.25774 -109.726 43.7739 -79.1931 -176.525 10.5579 87.6622 -20.4907 14.9873 -0.0882504 51.1988 -5.53452 -0.990366 18.191 -5.46619 -0.778649 173.316 1.15047 84.9359 -78.2274 -17.6396 -4.27388 55.6107 1.99332 -3.02352 12.7954 2.91122 9.54438 2.47828 8.4343 -89.9338 10.0181 4.96906 -0.2789 -1.64339 4.95196 -0.497875 -24.2519 4.82259 1.23098 -4.2393 4.8226 1.23098 91.3451 -19.4179 -108.41 28.5073 16.2098 -5.32328 -32.974 -2.01347 -106.838 -31.3526 1.69029 -19.2999 -84.8598 -44.7206 85.7423 -26.2889 24.6176 47.5064 31.6331 -22.2606 -101.387 -2.62746 -0.0309447 -31.2897 -14.2939 28.9764 12.1686 -3.43114 28.7249 12.4945 
12.702 100.333 7.93245 -105.119 42.3818 -83.0168 -177.969 14.7423 87.3589 -14.6901 22.1595 0.161138 53.1515 -4.57735 -2.97639 15.0356 -10.0458 6.21681 173.774 -4.16156 87.3746 -67.044 -17.8761 -4.00064 58.2438 0.88686 -0.805267 16.0263 1.88664 10.2397 2.58398 8.08409 -89.6742 10.7116 5.29594 0.160561 -0.948519 5.29785 -0.0733624 -23.5636 5.00217 1.74879 -3.55094 5.0022 1.74879 93.0279 -14.4888 -106.746 27.449 12.3763 -7.66567 -32.7251 -1.72876 -107.229 -32.6306 1.93501 -19.3152 -86.3417 -40.448 82.5831 -27.8521 18.9189 55.0282 32.659 -23.0514 -103.25 -3.49245 0.205546 -33.8248 -12.9314 29.2295 11.8221 -4.99418 28.7352 11.5099 
20.2134 99.8458 14.3079 -98.5545 40.647 -87.5448 -178.592 24.1305 87.4925 -21.7543 24.3469 0.12326 56.3244 -2.59162 -1.45023 17.8055 -8.32668 6.39641 175.304 -3.51387 90.2014 -58.56 -16.3747 -3.49326 62.567 -1.59462 -1.46078 18.2473 1.37088 10.0247 2.36503 7.81263 -89.478 11.2448 4.94974 0.550525 -0.416742 4.96915 0.331601 -23.0177 4.55499 2.01564 -3.00504 4.55501 2.01565 93.8056 -12.3199 -105.766 24.2699 10.7629 -9.55793 -26.9313 -2.75465 -109.213 -34.5295 3.00781 -20.5357 -87.1031 -39.3841 81.0912 -26.6762 18.3205 52.3443 32.819 -22.0707 -102.308 -1.50493 -0.320204 -34.0277 -8.0756 30.9427 14.8267 -4.93164 29.6733 9.46798 
28.0788 98.7458 21.1217 -96.3778 39.2672 -89.504 -176.801 30.3769 86.9336 -35.8856 18.8488 -0.919413 62.9324 1.45125 -1.5549 20.3004 -6.39562 5.40032 176.47 -1.53743 91.2815 -52.9847 -17.0626 -3.94321 64.6235 -3.06618 -3.38157 17.4484 1.5462 10.1383 2.10391 7.76589 -89.4283 11.3349 4.4531 0.693558 -0.328536 4.47929 0.496505 -22.9149 4.03847 2.00185 -2.90223 4.03848 2.00186 92.9702 -15.3668 -106.446 22.359 8.63924 -5.92098 -27.9596 -1.17092 -110.771 -32.333 2.91362 -21.4803 -87.1742 -42.1334 81.537 -22.2254 19.8787 41.6741 31.8992 -19.9049 -101.176 -1.69413 -0.248578 -32.7022 -6.44598 32.9405 17.5702 -5.54505 31.1886 9.05333 
